<svg xmlns="http://www.w3.org/2000/svg" viewBox="0 0 56 56" width="56" height="56" role="img" aria-label="GitHub DtX">
  <circle cx="28" cy="28" r="28" fill="#1F2937"/>
  <path fill="#F8FAFC" d="M28 13c-8.3 0-15 6.7-15 15 0 6.6 4.3 12.2 10.3 14.2.75.14 1.03-.33 1.03-.72 0-.36-.01-1.3-.02-2.55-4.18.91-5.06-2.01-5.06-2.01-.68-1.74-1.67-2.2-1.67-2.2-1.37-.93.1-.91.1-.91 1.51.11 2.3 1.55 2.3 1.55 1.34 2.3 3.52 1.64 4.38 1.25.14-.97.52-1.64.95-2.01-3.34-.38-6.85-1.67-6.85-7.43 0-1.64.59-2.99 1.55-4.04-.16-.38-.67-1.91.15-3.98 0 0 1.26-.4 4.13 1.54a14.4 14.4 0 0 1 7.52 0c2.87-1.94 4.13-1.54 4.13-1.54.82 2.07.3 3.6.15 3.98.96 1.05 1.55 2.4 1.55 4.04 0 5.78-3.52 7.05-6.87 7.42.54.47 1.02 1.38 1.02 2.78 0 2.01-.02 3.63-.02 4.12 0 .4.27.87 1.04.72C38.7 40.2 43 34.6 43 28c0-8.3-6.7-15-15-15z"/>
</svg>
